REM DIRINDEX 1\2\4,1\2\5,1\2\6,1\3\7,1\3\8
REM DIRNAME folder01,folder02,folder03,folder04,folder05,folder06,folder07,folder08
TITLE ""
FILE "044_Proficiency Test09.mp3" MP3
  TRACK 01 AUDIO
    TITLE "0:"
    INDEX 01 00:00:00
  TRACK 02 AUDIO
    TITLE "6:cjc128_2372"
    INDEX 01 00:00:23
  TRACK 03 AUDIO
    TITLE "0:"
    INDEX 01 00:02:61
  TRACK 04 AUDIO
    TITLE "6:cjc128_2373"
    INDEX 01 00:03:33
  TRACK 05 AUDIO
    TITLE "0:"
    INDEX 01 00:05:48
  TRACK 06 AUDIO
    TITLE "4:cjc128_2374"
    INDEX 01 00:06:30
  TRACK 07 AUDIO
    TITLE "0:"
    INDEX 01 00:09:57
  TRACK 08 AUDIO
    TITLE "5:cjc128_2375"
    INDEX 01 00:13:08
  TRACK 09 AUDIO
    TITLE "0:"
    INDEX 01 00:15:60
  TRACK 10 AUDIO
    TITLE "6:cjc128_2376"
    INDEX 01 00:16:36
  TRACK 11 AUDIO
    TITLE "0:"
    INDEX 01 00:18:33
  TRACK 12 AUDIO
    TITLE "4:cjc128_2377"
    INDEX 01 00:19:16
  TRACK 13 AUDIO
    TITLE "0:"
    INDEX 01 00:22:66
  TRACK 14 AUDIO
    TITLE "5:cjc128_2378"
    INDEX 01 00:26:62
  TRACK 15 AUDIO
    TITLE "0:"
    INDEX 01 00:30:03
  TRACK 16 AUDIO
    TITLE "6:cjc128_2379"
    INDEX 01 00:30:67
  TRACK 17 AUDIO
    TITLE "0:"
    INDEX 01 00:33:03
  TRACK 18 AUDIO
    TITLE "4:cjc128_2380"
    INDEX 01 00:33:60
  TRACK 19 AUDIO
    TITLE "0:"
    INDEX 01 00:38:18
  TRACK 20 AUDIO
    TITLE "5:cjc128_2381"
    INDEX 01 00:43:13
  TRACK 21 AUDIO
    TITLE "0:"
    INDEX 01 00:47:25
